#!OML:ASF I:\Actors\actors\Patient Classification 1\Patient 1\Session 1\Subject1.ASF
:FULLY-SPECIFIED
:DEGREES
1079
root 0.0736885 17.6646 8.06457 15.2447 -8.00433 -7.04025
lowerback 12.7929 -4.39038 5.31258
upperback 3.17762 -4.84009 6.72326
thorax -3.64447 -2.44299 4.86814
lowerneck 4.00608 -17.5846 -17.1153
upperneck 28.5483 -26.6435 8.85522
head 12.434 -13.2476 2.74284
rclavicle -4.77083e-014 -2.26615e-014
rhumerus 10.2377 59.4829 -27.6818
rradius 141.685
rwrist -35.7454
rhand 63.9505 -40.9136
rfingers 7.12502
rthumb 74.9711 6.00704
lclavicle -4.77083e-014 -2.26615e-014
lhumerus -37.8613 -52.7011 77.9859
lradius 142.386
lwrist 26.6066
lhand -4.0771 -40.7021
lfingers 7.12502
lthumb 21.6799 -11.896
rfemur -18.0569 23.1643 18.6847
rtibia 10.9876
rfoot -10.2419 -19.1922
rtoes -4.71488
lfemur -7.31056 -31.385 -6.4223
ltibia -0.777623
lfoot -17.6061 47.2046
ltoes 7.04947
1080
root 0.0634343 17.6697 8.05982 15.4217 -8.00364 -7.13431
lowerback 12.8903 -4.42235 5.19733
upperback 3.4241 -4.90166 6.95578
thorax -3.40271 -2.47553 5.18443
lowerneck 3.40787 -17.4312 -16.6084
upperneck 31.434 -26.4578 7.66952
head 13.4674 -13.1316 2.17843
rclavicle 2.38542e-014 7.99114e-014
rhumerus 10.4874 58.7436 -26.9574
rradius 141.872
rwrist -35.8143
rhand 62.8615 -40.0961
rfingers 7.12502
rthumb 74.9691 2.76769
lclavicle 2.38542e-014 7.99114e-014
lhumerus -37.5899 -52.2555 77.5931
lradius 142.57
lwrist 26.5596
lhand -4.41853 -40.8431
lfingers 7.12502
lthumb 21.352 -11.9995
rfemur -18.2889 23.137 18.7475
rtibia 11.0162
rfoot -10.2184 -19.0783
rtoes -4.76537
lfemur -7.54053 -31.5904 -6.15246
ltibia -0.743482
lfoot -17.5671 47.4214
ltoes 7.02557
1081
root 0.0589143 17.6696 8.05124 15.6454 -7.99786 -7.19497
lowerback 13.0309 -4.42199 5.23685
upperback 3.62462 -4.89231 7.16927
thorax -3.2503 -2.47342 5.39105
lowerneck 3.34713 -17.2103 -16.1279
upperneck 31.2279 -26.2355 8.05604
head 13.3383 -12.9535 2.31447
rclavicle 3.26007e-014 -3.10104e-014
rhumerus 9.41005 58.139 -27.3936
rradius 142.064
rwrist -35.4171
rhand 64.0789 -40.9564
rfingers 7.12502
rthumb 74.9663 6.44187
lclavicle 3.26007e-014 -3.10104e-014
lhumerus -37.8792 -51.9535 77.7378
lradius 142.688
lwrist 26.4691
lhand -4.71095 -40.6832
lfingers 7.12502
lthumb 21.0711 -11.808
rfemur -18.5857 23.169 18.7075
rtibia 10.9852
rfoot -10.0973 -19.0675
rtoes -5.21328
lfemur -7.84783 -31.8627 -5.90186
ltibia -0.681387
lfoot -17.757 47.6984
ltoes 7.21596
1082
root 0.0588116 17.6654 8.04086 15.9261 -8.07589 -7.23887
lowerback 13.0772 -4.40075 5.53829
upperback 3.80031 -4.83421 7.19613
thorax -3.11362 -2.44494 5.23692
lowerneck 3.47637 -16.9868 -16.2166
upperneck 29.8953 -26.2038 9.64105
head 13.018 -12.8484 2.93562
rclavicle 1.86858e-014 1.90833e-014
rhumerus 10.3432 58.2514 -25.8449
rradius 142.021
rwrist -35.1656
rhand 67.3448 -44.238
rfingers 7.12502
rthumb 74.4906 15.0199
lclavicle 1.86858e-014 1.90833e-014
lhumerus -38.3458 -51.8782 77.9215
lradius 142.669
lwrist 26.5131
lhand -4.90123 -40.2012
lfingers 7.12502
lthumb 20.8883 -11.3058
rfemur -18.9341 23.3208 18.5757
rtibia 10.8909
rfoot -9.99935 -19.1356
rtoes -5.35581
lfemur -8.13904 -32.2823 -5.6444
ltibia -0.752905
lfoot -18.3295 48.1716
ltoes 8.00981
1083
root 0.0608575 17.6604 8.03165 16.3169 -8.24434 -7.22983
lowerback 12.7607 -4.35755 6.15663
upperback 4.01401 -4.76036 6.88647
thorax -2.79513 -2.40229 4.50963
lowerneck 3.53733 -17.1752 -15.6467
upperneck 27.7869 -26.5027 10.8702
head 12.2835 -12.8846 3.28684
rclavicle 5.32743e-014 -3.29983e-014
rhumerus 9.17955 58.2349 -26.8049
rradius 141.869
rwrist -34.8941
rhand 67.6249 -43.9862
rfingers 7.12502
rthumb 74.4192 16.2458
lclavicle 5.32743e-014 -3.29983e-014
lhumerus -38.338 -52.143 77.3693
lradius 142.516
lwrist 26.7504
lhand -4.99479 -39.7673
lfingers 7.12502
lthumb 20.7984 -10.862
rfemur -19.4063 23.4883 18.3067
rtibia 10.7696
rfoot -9.90529 -19.1826
rtoes -5.4169
lfemur -8.48611 -32.8872 -5.37546
ltibia -0.936639
lfoot -19.2332 48.8329
ltoes 9.31274
1084
root 0.0600414 17.6589 8.02495 16.8278 -8.46476 -7.10701
lowerback 13.0036 -4.35392 6.44738
upperback 3.79698 -4.67315 6.72202
thorax -3.19639 -2.35927 4.19475
lowerneck 3.97053 -17.0773 -15.4578
upperneck 25.3029 -26.3022 11.9982
head 11.327 -12.7869 3.77047
rclavicle -4.6118e-014 2.46493e-014
rhumerus 7.2338 58.734 -28.4681
rradius 141.821
rwrist -34.678
rhand 68.0509 -44.3598
rfingers 7.12502
rthumb 74.3021 17.3352
lclavicle -4.6118e-014 2.46493e-014
lhumerus -39.1022 -52.2418 77.6888
lradius 142.368
lwrist 26.9192
lhand -5.11443 -39.4879
lfingers 7.12502
lthumb 20.6835 -10.57
rfemur -20.0166 23.6909 17.8292
rtibia 10.5886
rfoot -9.7585 -19.2794
rtoes -5.51776
lfemur -8.9902 -33.5572 -5.11718
ltibia -1.12466
lfoot -20.2771 49.5388
ltoes 10.6742
1085
root 0.054539 17.6632 8.01933 17.3693 -8.7807 -6.81967
lowerback 13.1456 -4.25994 6.451
upperback 3.60639 -4.51856 6.57897
thorax -3.49208 -2.28388 4.03853
lowerneck 4.58956 -17.2635 -15.554
upperneck 22.5511 -26.545 13.4699
head 10.4559 -12.9162 4.32126
rclavicle -3.77691e-014 7.67309e-014
rhumerus 6.14912 59.2009 -29.0646
rradius 141.821
rwrist -34.6886
rhand 67.7113 -44.0588
rfingers 7.12502
rthumb 74.3963 16.4717
lclavicle -3.77691e-014 7.67309e-014
lhumerus -39.3988 -52.3909 77.8136
lradius 142.346
lwrist 27.1197
lhand -5.2043 -39.2995
lfingers 7.12502
lthumb 20.5971 -10.3723
rfemur -20.7231 24.0495 17.0902
rtibia 10.4197
rfoot -9.63293 -19.4831
rtoes -5.41399
lfemur -9.56175 -34.0546 -5.00808
ltibia -1.27837
lfoot -21.1515 50.1082
ltoes 11.7306
1086
root 0.0497149 17.6702 8.01412 17.8528 -9.11012 -6.50381
lowerback 13.2222 -4.0766 6.51345
upperback 3.57773 -4.26232 6.41468
thorax -3.58702 -2.15667 3.79405
lowerneck 5.60092 -17.5975 -15.5316
upperneck 18.7115 -26.899 15.3764
head 9.24589 -13.1417 5.01807
rclavicle -2.94201e-014 5.28767e-014
rhumerus 5.54045 59.14 -29.0083
rradius 141.88
rwrist -34.83
rhand 67.099 -43.5935
rfingers 7.12502
rthumb 74.5493 14.8028
lclavicle -2.94201e-014 5.28767e-014
lhumerus -39.0685 -52.7411 77.5659
lradius 142.467
lwrist 27.2333
lhand -5.32162 -39.3066
lfingers 7.12502
lthumb 20.4844 -10.3672
rfemur -21.4019 24.3601 16.3345
rtibia 10.2976
rfoot -9.47534 -19.6229
rtoes -5.54113
lfemur -10.1199 -34.274 -4.97678
ltibia -1.36171
lfoot -21.6671 50.4508
ltoes 12.3394
1087
root 0.0486795 17.6763 8.00718 18.2164 -9.33613 -6.29838
lowerback 13.3737 -3.92721 6.70683
upperback 3.72924 -4.03906 6.3117
thorax -3.53246 -2.04456 3.54379
lowerneck 6.60691 -17.7543 -15.0698
upperneck 13.8819 -26.7478 17.2925
head 7.62965 -13.183 5.76297
rclavicle 1.51076e-014 3.69739e-014
rhumerus 4.27524 58.384 -29.7986
rradius 142.015
rwrist -34.7619
rhand 67.4702 -44.1433
rfingers 7.12502
rthumb 74.4592 15.5517
lclavicle 1.51076e-014 3.69739e-014
lhumerus -38.2649 -52.9683 76.9829
lradius 142.639
lwrist 27.2722
lhand -5.44003 -39.2181
lfingers 7.12502
lthumb 20.3706 -10.2665
rfemur -21.918 24.4697 15.8156
rtibia 10.2052
rfoot -9.30881 -19.6072
rtoes -5.77988
lfemur -10.6187 -34.3283 -4.90753
ltibia -1.34056
lfoot -22.0011 50.6291
ltoes 12.7687
1088
root 0.0536213 17.6758 7.99211 18.3809 -9.35227 -6.63733
lowerback 13.877 -3.90977 7.38375
upperback 4.06515 -3.89158 6.39139
thorax -3.48505 -1.97043 3.25213
lowerneck 7.79455 -17.7382 -14.3167
upperneck 8.16178 -26.1607 19.4097
head 5.71009 -13.1013 6.64763
rclavicle 1.70955e-014 -2.8625e-014
rhumerus 5.10372 57.8406 -28.4671
rradius 142.09
rwrist -34.7384
rhand 67.0023 -43.0611
rfingers 7.12502
rthumb 74.5714 14.9944
lclavicle 1.70955e-014 -2.8625e-014
lhumerus -37.284 -52.834 76.1635
lradius 142.809
lwrist 27.351
lhand -5.41462 -39.0767
lfingers 7.12502
lthumb 20.395 -10.1277
rfemur -22.0651 24.4556 16.1589
rtibia 10.1583
rfoot -9.23327 -19.4198
rtoes -5.67362
lfemur -10.821 -33.9785 -4.43372
ltibia -1.30915
lfoot -21.7446 50.5217
ltoes 12.522
1089
root 0.0633824 17.6677 7.96723 18.3399 -9.19775 -7.52532
lowerback 14.808 -3.98964 8.61124
upperback 4.54667 -3.74017 6.59592
thorax -3.52766 -1.89401 2.81606
lowerneck 8.84504 -17.6396 -13.3709
upperneck 2.16615 -25.2823 21.4482
head 3.73371 -12.9508 7.54555
rclavicle -1.59028e-014 -5.80451e-014
rhumerus 4.46479 56.8461 -28.7137
rradius 142.324
rwrist -34.5624
rhand 67.8231 -43.2074
rfingers 7.12502
rthumb 74.366 17.7081
lclavicle -1.59028e-014 -5.80451e-014
lhumerus -36.3698 -52.5554 75.292
lradius 142.947
lwrist 27.476
lhand -5.45879 -39.0201
lfingers 7.12502
lthumb 20.3525 -10.0666
rfemur -21.8763 24.36 17.367
rtibia 10.2003
rfoot -9.16927 -19.1085
rtoes -5.65248
lfemur -10.7035 -33.2049 -3.52901
ltibia -1.30268
lfoot -20.9036 50.0925
ltoes 11.6366
1090
root 0.065091 17.6639 7.94206 18.3122 -9.34919 -7.72776
lowerback 15.7438 -3.94554 8.9448
upperback 4.99696 -3.54747 6.63554
thorax -3.55713 -1.79513 2.68559
lowerneck 9.60884 -17.4825 -12.4908
upperneck -3.48159 -24.2663 23.3905
head 1.93699 -12.7758 8.43891
rclavicle 3.97569e-014 4.6118e-014
rhumerus 5.38654 56.3707 -27.083
rradius 142.558
rwrist -34.7368
rhand 66.7476 -41.8539
rfingers 7.12502
rthumb 74.627 15.2993
lclavicle 3.97569e-014 4.6118e-014
lhumerus -35.9469 -52.3459 74.8507
lradius 143.041
lwrist 27.4012
lhand -5.49206 -38.8683
lfingers 7.12502
lthumb 20.3206 -9.91136
rfemur -22.0208 24.4104 17.5927
rtibia 10.3953
rfoot -9.09683 -18.9628
rtoes -5.93183
lfemur -10.773 -32.6702 -3.3104
ltibia -1.20275
lfoot -20.6446 49.8523
ltoes 11.5576
1091
root 0.0594542 17.6615 7.91959 18.3924 -9.65017 -7.40204
lowerback 16.5731 -3.81618 8.62822
upperback 5.36087 -3.35425 6.55092
thorax -3.59374 -1.69716 2.77098
lowerneck 10.0159 -17.2413 -11.6771
upperneck -8.47756 -23.136 25.1617
head 0.376809 -12.5559 9.28576
rclavicle 5.96354e-014 -3.97569e-014
rhumerus 5.12672 55.9871 -26.6269
rradius 142.757
rwrist -34.7692
rhand 66.0849 -41.1316
rfingers 7.12502
rthumb 74.7531 13.6447
lclavicle 5.96354e-014 -3.97569e-014
lhumerus -35.9944 -52.1932 74.8075
lradius 143.087
lwrist 27.1207
lhand -5.44695 -38.7934
lfingers 7.12502
lthumb 20.3639 -9.84112
rfemur -22.4699 24.5501 17.0253
rtibia 10.621
rfoot -9.06025 -18.9902
rtoes -6.1316
lfemur -11.1033 -32.2918 -3.55193
ltibia -1.03907
lfoot -20.6404 49.7159
ltoes 11.7926
1092
root 0.0557142 17.6518 7.89662 18.738 -9.7467 -7.33636
lowerback 17.2512 -3.70593 8.78579
upperback 5.56187 -3.11378 6.48467
thorax -3.74303 -1.57878 2.6
lowerneck 10.2683 -17.0396 -10.6275
upperneck -13.1128 -22.0226 26.2802
head -1.1653 -12.3422 9.93105
rclavicle -2.3059e-014 2.94201e-014
rhumerus 3.56847 55.9101 -27.3814
rradius 142.889
rwrist -34.5096
rhand 66.0223 -40.8217
rfingers 7.12502
rthumb 74.7636 13.7281
lclavicle -2.3059e-014 2.94201e-014
lhumerus -36.1376 -52.1856 74.8484
lradius 143.067
lwrist 26.8303
lhand -5.48036 -38.7512
lfingers 7.12502
lthumb 20.3318 -9.79548
rfemur -23.1369 24.5382 16.691
rtibia 10.803
rfoot -9.02463 -18.9917
rtoes -6.22345
lfemur -11.7492 -31.8948 -3.28877
ltibia -0.898188
lfoot -20.4321 49.5808
ltoes 11.702
1093
root 0.0520252 17.6443 7.87609 19.6726 -9.97188 -6.97776
lowerback 17.3048 -3.49313 8.71183
upperback 5.53405 -2.84487 6.32745
thorax -3.80237 -1.44668 2.41844
lowerneck 10.1616 -16.8043 -9.94148
upperneck -16.4971 -21.0727 27.1001
head -2.26334 -12.1271 10.4305
rclavicle 6.2816e-014 7.15625e-014
rhumerus 1.60505 56.1082 -28.5426
rradius 142.919
rwrist -34.0422
rhand 65.8297 -40.529
rfingers 7.12502
rthumb 74.7944 13.3219
lclavicle 6.2816e-014 7.15625e-014
lhumerus -36.2633 -52.2018 74.9689
lradius 142.972
lwrist 26.5259
lhand -5.28371 -38.6304
lfingers 7.12502
lthumb 20.5208 -9.69495
rfemur -24.6775 24.4823 15.5868
rtibia 11.0474
rfoot -8.97703 -18.9939
rtoes -6.21659
lfemur -13.2107 -31.8956 -2.8695
ltibia -0.747281
lfoot -20.7071 49.9669
ltoes 11.9596
